<mxfile host="app.diagrams.net" modified="2021-09-26T06:51:20.851Z" agent="5.0 (Windows NT 6.1) AppleWebKit/537.36 (KHTML, like Gecko) Chrome/93.0.4577.82 Safari/537.36" etag="JmthJM1ChSqPjB9h2Bkn" version="15.3.3" type="github">
  <diagram id="WUtvsR8JQNHbGCfWxzJ2" name="Page-1">
    <mxGraphModel dx="868" dy="450" grid="1" gridSize="10" guides="1" tooltips="1" connect="1" arrows="1" fold="1" page="1" pageScale="1" pageWidth="1169" pageHeight="827" math="0" shadow="0">
      <root>
        <mxCell id="0" />
        <mxCell id="1" parent="0" />
        <mxCell id="knASVPoed2hm8nHkAF8M-1" value="" style="endArrow=none;html=1;startSize=14;endSize=14;sourcePerimeterSpacing=8;targetPerimeterSpacing=8;" edge="1" parent="1">
          <mxGeometry width="50" height="50" relative="1" as="geometry">
            <mxPoint x="320" y="40" as="sourcePoint" />
            <mxPoint x="920" y="40" as="targetPoint" />
          </mxGeometry>
        </mxCell>
        <mxCell id="knASVPoed2hm8nHkAF8M-5" value="" style="endArrow=classic;html=1;startSize=14;endSize=14;sourcePerimeterSpacing=8;targetPerimeterSpacing=8;" edge="1" parent="1">
          <mxGeometry width="50" height="50" relative="1" as="geometry">
            <mxPoint x="320" y="40" as="sourcePoint" />
            <mxPoint x="270" y="100" as="targetPoint" />
            <Array as="points">
              <mxPoint x="320" y="80" />
              <mxPoint x="270" y="80" />
            </Array>
          </mxGeometry>
        </mxCell>
        <mxCell id="knASVPoed2hm8nHkAF8M-6" value="View" style="rhombus;whiteSpace=wrap;html=1;hachureGap=4;pointerEvents=0;" vertex="1" parent="1">
          <mxGeometry x="250" y="100" width="40" height="40" as="geometry" />
        </mxCell>
        <mxCell id="knASVPoed2hm8nHkAF8M-8" value="" style="endArrow=classic;html=1;startSize=14;endSize=14;sourcePerimeterSpacing=8;targetPerimeterSpacing=8;exitX=0.5;exitY=1;exitDx=0;exitDy=0;" edge="1" parent="1" source="knASVPoed2hm8nHkAF8M-6">
          <mxGeometry width="50" height="50" relative="1" as="geometry">
            <mxPoint x="550" y="170" as="sourcePoint" />
            <mxPoint x="260" y="200" as="targetPoint" />
            <Array as="points">
              <mxPoint x="270" y="160" />
              <mxPoint x="320" y="160" />
              <mxPoint x="320" y="200" />
              <mxPoint x="270" y="200" />
            </Array>
          </mxGeometry>
        </mxCell>
        <mxCell id="knASVPoed2hm8nHkAF8M-9" value="Driver" style="rounded=0;whiteSpace=wrap;html=1;hachureGap=4;pointerEvents=0;" vertex="1" parent="1">
          <mxGeometry x="200" y="184" width="60" height="30" as="geometry" />
        </mxCell>
        <mxCell id="knASVPoed2hm8nHkAF8M-10" value="" style="endArrow=classic;html=1;startSize=14;endSize=14;sourcePerimeterSpacing=8;targetPerimeterSpacing=8;exitX=0.25;exitY=0;exitDx=0;exitDy=0;" edge="1" parent="1" source="knASVPoed2hm8nHkAF8M-9">
          <mxGeometry width="50" height="50" relative="1" as="geometry">
            <mxPoint x="200" y="230" as="sourcePoint" />
            <mxPoint x="80" y="103" as="targetPoint" />
          </mxGeometry>
        </mxCell>
        <mxCell id="knASVPoed2hm8nHkAF8M-11" value="&lt;font style=&quot;font-size: 10px&quot;&gt;Driver ID&lt;/font&gt;" style="ellipse;whiteSpace=wrap;html=1;hachureGap=4;pointerEvents=0;" vertex="1" parent="1">
          <mxGeometry x="30" y="80" width="50" height="30" as="geometry" />
        </mxCell>
        <mxCell id="knASVPoed2hm8nHkAF8M-12" value="&lt;font style=&quot;font-size: 10px&quot;&gt;Name&lt;/font&gt;" style="ellipse;whiteSpace=wrap;html=1;hachureGap=4;pointerEvents=0;" vertex="1" parent="1">
          <mxGeometry x="30" y="120" width="50" height="30" as="geometry" />
        </mxCell>
        <mxCell id="knASVPoed2hm8nHkAF8M-13" value="&lt;font style=&quot;font-size: 10px&quot;&gt;Role&lt;/font&gt;" style="ellipse;whiteSpace=wrap;html=1;hachureGap=4;pointerEvents=0;" vertex="1" parent="1">
          <mxGeometry x="30" y="160" width="50" height="30" as="geometry" />
        </mxCell>
        <mxCell id="knASVPoed2hm8nHkAF8M-14" value="&lt;font style=&quot;font-size: 10px&quot;&gt;Age&lt;/font&gt;" style="ellipse;whiteSpace=wrap;html=1;hachureGap=4;pointerEvents=0;" vertex="1" parent="1">
          <mxGeometry x="30" y="240" width="50" height="30" as="geometry" />
        </mxCell>
        <mxCell id="knASVPoed2hm8nHkAF8M-15" value="&lt;font style=&quot;font-size: 10px&quot;&gt;Email&lt;/font&gt;" style="ellipse;whiteSpace=wrap;html=1;hachureGap=4;pointerEvents=0;" vertex="1" parent="1">
          <mxGeometry x="30" y="200" width="50" height="30" as="geometry" />
        </mxCell>
        <mxCell id="knASVPoed2hm8nHkAF8M-16" value="&lt;font style=&quot;font-size: 10px&quot;&gt;Liecence&lt;/font&gt;" style="ellipse;whiteSpace=wrap;html=1;hachureGap=4;pointerEvents=0;" vertex="1" parent="1">
          <mxGeometry x="30" y="280" width="50" height="30" as="geometry" />
        </mxCell>
        <mxCell id="knASVPoed2hm8nHkAF8M-17" value="&lt;font style=&quot;font-size: 10px&quot;&gt;Experience&lt;/font&gt;" style="ellipse;whiteSpace=wrap;html=1;hachureGap=4;pointerEvents=0;" vertex="1" parent="1">
          <mxGeometry x="30" y="320" width="50" height="30" as="geometry" />
        </mxCell>
        <mxCell id="knASVPoed2hm8nHkAF8M-18" value="&lt;font style=&quot;font-size: 10px&quot;&gt;Address&lt;/font&gt;" style="ellipse;whiteSpace=wrap;html=1;hachureGap=4;pointerEvents=0;" vertex="1" parent="1">
          <mxGeometry x="30" y="360" width="50" height="30" as="geometry" />
        </mxCell>
        <mxCell id="knASVPoed2hm8nHkAF8M-19" value="&lt;font style=&quot;font-size: 10px&quot;&gt;Phone&lt;/font&gt;" style="ellipse;whiteSpace=wrap;html=1;hachureGap=4;pointerEvents=0;" vertex="1" parent="1">
          <mxGeometry x="30" y="399" width="50" height="30" as="geometry" />
        </mxCell>
        <mxCell id="knASVPoed2hm8nHkAF8M-20" value="&lt;font style=&quot;font-size: 10px&quot;&gt;Password&lt;/font&gt;" style="ellipse;whiteSpace=wrap;html=1;hachureGap=4;pointerEvents=0;" vertex="1" parent="1">
          <mxGeometry x="30" y="440" width="50" height="30" as="geometry" />
        </mxCell>
        <mxCell id="knASVPoed2hm8nHkAF8M-22" value="" style="endArrow=classic;html=1;startSize=14;endSize=14;sourcePerimeterSpacing=8;targetPerimeterSpacing=8;entryX=0.973;entryY=0.694;entryDx=0;entryDy=0;entryPerimeter=0;" edge="1" parent="1" target="knASVPoed2hm8nHkAF8M-12">
          <mxGeometry width="50" height="50" relative="1" as="geometry">
            <mxPoint x="200" y="190" as="sourcePoint" />
            <mxPoint x="80" y="156" as="targetPoint" />
          </mxGeometry>
        </mxCell>
        <mxCell id="knASVPoed2hm8nHkAF8M-23" value="" style="endArrow=classic;html=1;startSize=14;endSize=14;sourcePerimeterSpacing=8;targetPerimeterSpacing=8;exitX=0;exitY=0.5;exitDx=0;exitDy=0;" edge="1" parent="1" source="knASVPoed2hm8nHkAF8M-9">
          <mxGeometry width="50" height="50" relative="1" as="geometry">
            <mxPoint x="215" y="244" as="sourcePoint" />
            <mxPoint x="80" y="180" as="targetPoint" />
          </mxGeometry>
        </mxCell>
        <mxCell id="knASVPoed2hm8nHkAF8M-24" value="" style="endArrow=classic;html=1;startSize=14;endSize=14;sourcePerimeterSpacing=8;targetPerimeterSpacing=8;exitX=0;exitY=0.75;exitDx=0;exitDy=0;" edge="1" parent="1" source="knASVPoed2hm8nHkAF8M-9">
          <mxGeometry width="50" height="50" relative="1" as="geometry">
            <mxPoint x="215" y="278" as="sourcePoint" />
            <mxPoint x="80" y="214" as="targetPoint" />
          </mxGeometry>
        </mxCell>
        <mxCell id="knASVPoed2hm8nHkAF8M-25" value="" style="endArrow=classic;html=1;startSize=14;endSize=14;sourcePerimeterSpacing=8;targetPerimeterSpacing=8;exitX=0;exitY=1;exitDx=0;exitDy=0;" edge="1" parent="1" source="knASVPoed2hm8nHkAF8M-9">
          <mxGeometry width="50" height="50" relative="1" as="geometry">
            <mxPoint x="215" y="314" as="sourcePoint" />
            <mxPoint x="80" y="250" as="targetPoint" />
          </mxGeometry>
        </mxCell>
        <mxCell id="knASVPoed2hm8nHkAF8M-26" value="" style="endArrow=classic;html=1;startSize=14;endSize=14;sourcePerimeterSpacing=8;targetPerimeterSpacing=8;exitX=0;exitY=1;exitDx=0;exitDy=0;entryX=1.007;entryY=0.222;entryDx=0;entryDy=0;entryPerimeter=0;" edge="1" parent="1" source="knASVPoed2hm8nHkAF8M-9" target="knASVPoed2hm8nHkAF8M-16">
          <mxGeometry width="50" height="50" relative="1" as="geometry">
            <mxPoint x="180" y="310" as="sourcePoint" />
            <mxPoint x="45" y="246" as="targetPoint" />
          </mxGeometry>
        </mxCell>
        <mxCell id="knASVPoed2hm8nHkAF8M-27" value="" style="endArrow=classic;html=1;startSize=14;endSize=14;sourcePerimeterSpacing=8;targetPerimeterSpacing=8;exitX=0.103;exitY=1.061;exitDx=0;exitDy=0;exitPerimeter=0;" edge="1" parent="1" source="knASVPoed2hm8nHkAF8M-9">
          <mxGeometry width="50" height="50" relative="1" as="geometry">
            <mxPoint x="210" y="210" as="sourcePoint" />
            <mxPoint x="80" y="326" as="targetPoint" />
          </mxGeometry>
        </mxCell>
        <mxCell id="knASVPoed2hm8nHkAF8M-28" value="" style="endArrow=classic;html=1;startSize=14;endSize=14;sourcePerimeterSpacing=8;targetPerimeterSpacing=8;exitX=0.25;exitY=1;exitDx=0;exitDy=0;entryX=1;entryY=0.5;entryDx=0;entryDy=0;" edge="1" parent="1" source="knASVPoed2hm8nHkAF8M-9" target="knASVPoed2hm8nHkAF8M-18">
          <mxGeometry width="50" height="50" relative="1" as="geometry">
            <mxPoint x="285" y="254" as="sourcePoint" />
            <mxPoint x="150" y="190" as="targetPoint" />
          </mxGeometry>
        </mxCell>
        <mxCell id="knASVPoed2hm8nHkAF8M-29" value="" style="endArrow=classic;html=1;startSize=14;endSize=14;sourcePerimeterSpacing=8;targetPerimeterSpacing=8;exitX=0.25;exitY=1;exitDx=0;exitDy=0;entryX=0.99;entryY=0.172;entryDx=0;entryDy=0;entryPerimeter=0;" edge="1" parent="1" source="knASVPoed2hm8nHkAF8M-9" target="knASVPoed2hm8nHkAF8M-19">
          <mxGeometry width="50" height="50" relative="1" as="geometry">
            <mxPoint x="295" y="264" as="sourcePoint" />
            <mxPoint x="160" y="200" as="targetPoint" />
          </mxGeometry>
        </mxCell>
        <mxCell id="knASVPoed2hm8nHkAF8M-30" value="" style="endArrow=classic;html=1;startSize=14;endSize=14;sourcePerimeterSpacing=8;targetPerimeterSpacing=8;exitX=0.25;exitY=1;exitDx=0;exitDy=0;entryX=1;entryY=0;entryDx=0;entryDy=0;" edge="1" parent="1" source="knASVPoed2hm8nHkAF8M-9" target="knASVPoed2hm8nHkAF8M-20">
          <mxGeometry width="50" height="50" relative="1" as="geometry">
            <mxPoint x="305" y="274" as="sourcePoint" />
            <mxPoint x="170" y="210" as="targetPoint" />
          </mxGeometry>
        </mxCell>
        <mxCell id="knASVPoed2hm8nHkAF8M-31" value="" style="endArrow=open;endFill=1;endSize=12;html=1;sourcePerimeterSpacing=8;targetPerimeterSpacing=8;exitX=0.5;exitY=1;exitDx=0;exitDy=0;" edge="1" parent="1" source="knASVPoed2hm8nHkAF8M-9">
          <mxGeometry width="160" relative="1" as="geometry">
            <mxPoint x="200" y="300" as="sourcePoint" />
            <mxPoint x="320" y="320" as="targetPoint" />
            <Array as="points">
              <mxPoint x="230" y="280" />
              <mxPoint x="320" y="280" />
            </Array>
          </mxGeometry>
        </mxCell>
        <mxCell id="knASVPoed2hm8nHkAF8M-32" value="&lt;font style=&quot;font-size: 10px&quot;&gt;Appoint&lt;/font&gt;" style="rhombus;whiteSpace=wrap;html=1;hachureGap=4;pointerEvents=0;" vertex="1" parent="1">
          <mxGeometry x="300" y="320" width="40" height="40" as="geometry" />
        </mxCell>
        <mxCell id="knASVPoed2hm8nHkAF8M-33" value="" style="endArrow=classic;html=1;startSize=14;endSize=14;sourcePerimeterSpacing=8;targetPerimeterSpacing=8;exitX=0.5;exitY=1;exitDx=0;exitDy=0;" edge="1" parent="1" source="knASVPoed2hm8nHkAF8M-32">
          <mxGeometry width="50" height="50" relative="1" as="geometry">
            <mxPoint x="150" y="490" as="sourcePoint" />
            <mxPoint x="420" y="443" as="targetPoint" />
            <Array as="points">
              <mxPoint x="320" y="443" />
            </Array>
          </mxGeometry>
        </mxCell>
        <mxCell id="knASVPoed2hm8nHkAF8M-34" value="Fuel Cost Calculation" style="rounded=1;whiteSpace=wrap;html=1;hachureGap=4;pointerEvents=0;" vertex="1" parent="1">
          <mxGeometry x="435" y="169" width="120" height="31" as="geometry" />
        </mxCell>
        <mxCell id="knASVPoed2hm8nHkAF8M-37" value="M" style="text;html=1;align=center;verticalAlign=middle;resizable=0;points=[];autosize=1;strokeColor=none;fillColor=none;" vertex="1" parent="1">
          <mxGeometry x="225" y="230" width="30" height="20" as="geometry" />
        </mxCell>
        <mxCell id="knASVPoed2hm8nHkAF8M-38" value="" style="endArrow=classic;html=1;startSize=14;endSize=14;targetPerimeterSpacing=8;exitX=1;exitY=0.5;exitDx=0;exitDy=0;startArrow=none;" edge="1" parent="1" source="knASVPoed2hm8nHkAF8M-39">
          <mxGeometry width="50" height="50" relative="1" as="geometry">
            <mxPoint x="540" y="170" as="sourcePoint" />
            <mxPoint x="680" y="185" as="targetPoint" />
          </mxGeometry>
        </mxCell>
        <mxCell id="knASVPoed2hm8nHkAF8M-41" value="&lt;font style=&quot;font-size: 10px&quot;&gt;Fuel Type&lt;/font&gt;" style="ellipse;whiteSpace=wrap;html=1;hachureGap=4;pointerEvents=0;" vertex="1" parent="1">
          <mxGeometry x="620" y="95" width="60" height="20" as="geometry" />
        </mxCell>
        <mxCell id="knASVPoed2hm8nHkAF8M-42" value="&lt;font style=&quot;font-size: 10px&quot;&gt;Transport NUmber&lt;/font&gt;" style="ellipse;whiteSpace=wrap;html=1;hachureGap=4;pointerEvents=0;" vertex="1" parent="1">
          <mxGeometry x="610" y="50" width="80" height="30" as="geometry" />
        </mxCell>
        <mxCell id="knASVPoed2hm8nHkAF8M-43" value="" style="endArrow=classic;html=1;startSize=14;endSize=14;sourcePerimeterSpacing=8;targetPerimeterSpacing=8;exitX=1;exitY=0.25;exitDx=0;exitDy=0;entryX=0.038;entryY=0.833;entryDx=0;entryDy=0;entryPerimeter=0;" edge="1" parent="1" source="knASVPoed2hm8nHkAF8M-34" target="knASVPoed2hm8nHkAF8M-40">
          <mxGeometry width="50" height="50" relative="1" as="geometry">
            <mxPoint x="640" y="174.5" as="sourcePoint" />
            <mxPoint x="680" y="175" as="targetPoint" />
          </mxGeometry>
        </mxCell>
        <mxCell id="knASVPoed2hm8nHkAF8M-46" value="Fuel Calculation ID" style="ellipse;whiteSpace=wrap;html=1;hachureGap=4;pointerEvents=0;" vertex="1" parent="1">
          <mxGeometry x="440" y="50" width="110" height="30" as="geometry" />
        </mxCell>
        <mxCell id="knASVPoed2hm8nHkAF8M-39" value="&lt;font style=&quot;font-size: 10px&quot;&gt;Fuel Quantity&lt;/font&gt;" style="ellipse;whiteSpace=wrap;html=1;hachureGap=4;pointerEvents=0;" vertex="1" parent="1">
          <mxGeometry x="600" y="160" width="80" height="30" as="geometry" />
        </mxCell>
        <mxCell id="knASVPoed2hm8nHkAF8M-48" value="" style="endArrow=classic;html=1;startSize=14;endSize=14;sourcePerimeterSpacing=8;targetPerimeterSpacing=8;exitX=1;exitY=0.5;exitDx=0;exitDy=0;entryX=0;entryY=0.5;entryDx=0;entryDy=0;" edge="1" parent="1" target="knASVPoed2hm8nHkAF8M-39">
          <mxGeometry width="50" height="50" relative="1" as="geometry">
            <mxPoint x="555" y="184.5" as="sourcePoint" />
            <mxPoint x="595" y="185" as="targetPoint" />
          </mxGeometry>
        </mxCell>
        <mxCell id="knASVPoed2hm8nHkAF8M-40" value="&lt;font style=&quot;font-size: 10px&quot;&gt;Fuel Price&lt;/font&gt;" style="ellipse;whiteSpace=wrap;html=1;hachureGap=4;pointerEvents=0;" vertex="1" parent="1">
          <mxGeometry x="600" y="130" width="70" height="20" as="geometry" />
        </mxCell>
        <mxCell id="knASVPoed2hm8nHkAF8M-50" value="" style="endArrow=classic;html=1;startSize=14;endSize=14;sourcePerimeterSpacing=8;targetPerimeterSpacing=8;exitX=1;exitY=0.5;exitDx=0;exitDy=0;entryX=0;entryY=1;entryDx=0;entryDy=0;" edge="1" parent="1" target="knASVPoed2hm8nHkAF8M-41">
          <mxGeometry width="50" height="50" relative="1" as="geometry">
            <mxPoint x="540" y="169" as="sourcePoint" />
            <mxPoint x="580" y="169.5" as="targetPoint" />
          </mxGeometry>
        </mxCell>
        <mxCell id="knASVPoed2hm8nHkAF8M-51" value="" style="endArrow=classic;html=1;startSize=14;endSize=14;sourcePerimeterSpacing=8;targetPerimeterSpacing=8;exitX=0.75;exitY=0;exitDx=0;exitDy=0;entryX=0;entryY=1;entryDx=0;entryDy=0;" edge="1" parent="1" source="knASVPoed2hm8nHkAF8M-34" target="knASVPoed2hm8nHkAF8M-42">
          <mxGeometry width="50" height="50" relative="1" as="geometry">
            <mxPoint x="510" y="169" as="sourcePoint" />
            <mxPoint x="550" y="169.5" as="targetPoint" />
          </mxGeometry>
        </mxCell>
        <mxCell id="knASVPoed2hm8nHkAF8M-52" value="" style="endArrow=classic;html=1;startSize=14;endSize=14;sourcePerimeterSpacing=8;targetPerimeterSpacing=8;entryX=0.4;entryY=1.167;entryDx=0;entryDy=0;entryPerimeter=0;" edge="1" parent="1" target="knASVPoed2hm8nHkAF8M-46">
          <mxGeometry width="50" height="50" relative="1" as="geometry">
            <mxPoint x="484" y="169" as="sourcePoint" />
            <mxPoint x="520" y="169.5" as="targetPoint" />
          </mxGeometry>
        </mxCell>
        <mxCell id="knASVPoed2hm8nHkAF8M-53" value="&lt;font style=&quot;font-size: 10px&quot;&gt;Date&lt;/font&gt;" style="ellipse;whiteSpace=wrap;html=1;hachureGap=4;pointerEvents=0;" vertex="1" parent="1">
          <mxGeometry x="340" y="50" width="80" height="30" as="geometry" />
        </mxCell>
        <mxCell id="knASVPoed2hm8nHkAF8M-54" value="&lt;font style=&quot;font-size: 10px&quot;&gt;Place&lt;/font&gt;" style="ellipse;whiteSpace=wrap;html=1;hachureGap=4;pointerEvents=0;" vertex="1" parent="1">
          <mxGeometry x="340" y="90" width="80" height="30" as="geometry" />
        </mxCell>
        <mxCell id="knASVPoed2hm8nHkAF8M-55" value="&lt;font style=&quot;font-size: 10px&quot;&gt;Remark&lt;/font&gt;" style="ellipse;whiteSpace=wrap;html=1;hachureGap=4;pointerEvents=0;" vertex="1" parent="1">
          <mxGeometry x="340" y="130" width="80" height="30" as="geometry" />
        </mxCell>
        <mxCell id="knASVPoed2hm8nHkAF8M-56" value="" style="endArrow=classic;html=1;startSize=14;endSize=14;sourcePerimeterSpacing=8;targetPerimeterSpacing=8;exitX=0.325;exitY=-0.097;exitDx=0;exitDy=0;entryX=0.95;entryY=0.733;entryDx=0;entryDy=0;entryPerimeter=0;exitPerimeter=0;" edge="1" parent="1" source="knASVPoed2hm8nHkAF8M-34" target="knASVPoed2hm8nHkAF8M-53">
          <mxGeometry width="50" height="50" relative="1" as="geometry">
            <mxPoint x="450" y="169" as="sourcePoint" />
            <mxPoint x="490" y="169.5" as="targetPoint" />
          </mxGeometry>
        </mxCell>
        <mxCell id="knASVPoed2hm8nHkAF8M-57" value="" style="endArrow=classic;html=1;startSize=14;endSize=14;sourcePerimeterSpacing=8;targetPerimeterSpacing=8;exitX=0.25;exitY=0;exitDx=0;exitDy=0;entryX=0.95;entryY=0.8;entryDx=0;entryDy=0;entryPerimeter=0;" edge="1" parent="1" source="knASVPoed2hm8nHkAF8M-34" target="knASVPoed2hm8nHkAF8M-54">
          <mxGeometry width="50" height="50" relative="1" as="geometry">
            <mxPoint x="430" y="160" as="sourcePoint" />
            <mxPoint x="470" y="160.5" as="targetPoint" />
          </mxGeometry>
        </mxCell>
        <mxCell id="knASVPoed2hm8nHkAF8M-58" value="" style="endArrow=classic;html=1;startSize=14;endSize=14;sourcePerimeterSpacing=8;targetPerimeterSpacing=8;exitX=0;exitY=0;exitDx=0;exitDy=0;entryX=0.95;entryY=0.833;entryDx=0;entryDy=0;entryPerimeter=0;" edge="1" parent="1" source="knASVPoed2hm8nHkAF8M-34" target="knASVPoed2hm8nHkAF8M-55">
          <mxGeometry width="50" height="50" relative="1" as="geometry">
            <mxPoint x="395" y="174.5" as="sourcePoint" />
            <mxPoint x="435" y="175" as="targetPoint" />
          </mxGeometry>
        </mxCell>
        <mxCell id="knASVPoed2hm8nHkAF8M-59" value="" style="endArrow=classic;html=1;startSize=14;endSize=14;sourcePerimeterSpacing=8;targetPerimeterSpacing=8;exitX=0.25;exitY=1;exitDx=0;exitDy=0;" edge="1" parent="1" source="knASVPoed2hm8nHkAF8M-34">
          <mxGeometry width="50" height="50" relative="1" as="geometry">
            <mxPoint x="540" y="260" as="sourcePoint" />
            <mxPoint x="270" y="320" as="targetPoint" />
            <Array as="points">
              <mxPoint x="465" y="230" />
              <mxPoint x="270" y="230" />
            </Array>
          </mxGeometry>
        </mxCell>
        <mxCell id="knASVPoed2hm8nHkAF8M-60" value="&lt;font style=&quot;font-size: 10px&quot;&gt;Calculate From&lt;/font&gt;" style="rhombus;whiteSpace=wrap;html=1;hachureGap=4;pointerEvents=0;" vertex="1" parent="1">
          <mxGeometry x="250" y="320" width="40" height="40" as="geometry" />
        </mxCell>
        <mxCell id="knASVPoed2hm8nHkAF8M-61" value="" style="rounded=0;whiteSpace=wrap;html=1;hachureGap=4;pointerEvents=0;" vertex="1" parent="1">
          <mxGeometry x="210" y="394" width="100" height="20" as="geometry" />
        </mxCell>
        <mxCell id="knASVPoed2hm8nHkAF8M-62" value="" style="endArrow=classic;html=1;startSize=14;endSize=14;sourcePerimeterSpacing=8;targetPerimeterSpacing=8;exitX=0.5;exitY=1;exitDx=0;exitDy=0;entryX=0.58;entryY=0;entryDx=0;entryDy=0;entryPerimeter=0;" edge="1" parent="1" source="knASVPoed2hm8nHkAF8M-60" target="knASVPoed2hm8nHkAF8M-61">
          <mxGeometry width="50" height="50" relative="1" as="geometry">
            <mxPoint x="540" y="350" as="sourcePoint" />
            <mxPoint x="290" y="390" as="targetPoint" />
          </mxGeometry>
        </mxCell>
      </root>
    </mxGraphModel>
  </diagram>
</mxfile>
